<?xml version="1.0" standalone="no"?>
<!DOCTYPE svg PUBLIC "-//W3C//DTD SVG 20010904//EN"
 "http://www.w3.org/TR/2001/REC-SVG-20010904/DTD/svg10.dtd">
<svg version="1.0" xmlns="http://www.w3.org/2000/svg"
 width="500.000000pt" height="500.000000pt" viewBox="0 0 500.000000 500.000000"
 preserveAspectRatio="xMidYMid meet">
<metadata>
Created by potrace 1.14, written by Peter Selinger 2001-2017
</metadata>
<g transform="translate(0.000000,500.000000) scale(0.100000,-0.100000)"
fill="#000000" stroke="none">
<path d="M1175 4349 c-27 -4 -83 -13 -122 -19 -223 -34 -464 -181 -598 -363
-25 -34 -49 -67 -54 -73 -38 -47 -119 -251 -147 -374 -39 -167 -16 -444 53
-650 26 -75 123 -282 165 -352 84 -136 217 -295 319 -381 89 -73 245 -174 354
-227 86 -42 253 -105 304 -115 104 -20 187 -26 292 -23 l127 3 163 163 c149
148 190 180 159 122 -6 -11 -31 -44 -57 -72 -63 -71 -99 -158 -63 -150 8 2 24
5 35 7 11 2 -161 -175 -381 -393 -266 -263 -404 -406 -408 -424 -10 -45 10
-76 123 -190 105 -107 110 -111 159 -116 l50 -4 89 89 c77 78 496 510 754 776
l87 90 -27 23 c-20 18 -22 23 -9 24 18 0 128 -106 252 -246 44 -49 120 -127
170 -174 49 -47 178 -173 287 -280 109 -107 208 -198 220 -202 46 -17 78 2
188 110 59 59 113 117 119 129 25 46 12 94 -37 142 -15 14 -112 107 -216 206
-283 272 -288 276 -284 279 2 2 40 -1 84 -6 59 -7 103 -5 170 5 106 17 273 61
288 76 6 6 19 11 28 11 25 0 243 115 329 173 91 62 128 94 249 217 127 130
131 134 131 148 0 7 4 12 9 12 19 0 158 232 209 350 99 225 142 519 107 715
-7 39 -16 86 -19 105 -9 50 -54 176 -84 235 -69 139 -215 299 -340 373 -39 23
-75 42 -80 42 -6 0 -12 4 -14 8 -4 12 -176 79 -215 85 -18 3 -49 11 -70 18
-25 9 -92 14 -198 14 -176 0 -210 -4 -335 -34 -108 -27 -103 -26 -115 -32 -5
-4 -28 -12 -50 -19 -105 -32 -318 -147 -434 -234 -125 -94 -285 -256 -304
-308 -5 -15 -22 1 -84 82 -97 128 -269 286 -409 377 -10 7 -35 23 -54 35 -36
24 -150 81 -230 116 -48 21 -195 67 -245 76 -61 12 -271 36 -305 35 -19 -1
-57 -5 -85 -10z m1633 -1694 c-12 -36 -17 -40 -65 -50 -29 -7 -53 -11 -53 -9
0 1 28 30 63 64 65 65 78 64 55 -5z m64 -552 c8 -16 22 -40 32 -55 10 -16 15
-28 12 -28 -8 0 -66 90 -66 102 0 15 9 8 22 -19z m65 -115 c-3 -8 -6 -5 -6 6
-1 11 2 17 5 13 3 -3 4 -12 1 -19z"/>
</g>
</svg>
